<svg xmlns="http://www.w3.org/2000/svg" width="820" height="820" viewBox="0 0 820 820">
  <g id="Group_1841" data-name="Group 1841" transform="translate(-2832.93 -245.071)">
    <path id="Exclusion_4" data-name="Exclusion 4" d="M410,820a416.584,416.584,0,0,1-41.92-2.117,411.032,411.032,0,0,1-40.709-6.213c-13.208-2.7-26.428-6.1-39.292-10.1-12.72-3.956-25.393-8.595-37.669-13.787A411.2,411.2,0,0,1,32.22,569.591c-5.192-12.276-9.831-24.95-13.787-37.669-4-12.864-7.4-26.084-10.1-39.292A411.042,411.042,0,0,1,2.117,451.92a416.142,416.142,0,0,1,0-83.84A411.034,411.034,0,0,1,8.33,327.371c2.7-13.208,6.1-26.428,10.1-39.292,3.956-12.719,8.595-25.393,13.787-37.669A411.2,411.2,0,0,1,250.41,32.22c12.276-5.192,24.95-9.831,37.669-13.787,12.864-4,26.084-7.4,39.292-10.1A411.034,411.034,0,0,1,368.08,2.117a416.142,416.142,0,0,1,83.84,0A411.042,411.042,0,0,1,492.63,8.33c13.208,2.7,26.428,6.1,39.292,10.1,12.719,3.956,25.393,8.595,37.669,13.787A411.2,411.2,0,0,1,787.78,250.41c5.192,12.276,9.831,24.949,13.787,37.669,4,12.864,7.4,26.084,10.1,39.292a411.032,411.032,0,0,1,6.213,40.709,416.138,416.138,0,0,1,0,83.84,411.039,411.039,0,0,1-6.213,40.709c-2.7,13.208-6.1,26.428-10.1,39.292-3.956,12.72-8.595,25.393-13.787,37.669A411.2,411.2,0,0,1,569.591,787.78c-12.276,5.192-24.949,9.831-37.669,13.787-12.864,4-26.084,7.4-39.292,10.1a411.039,411.039,0,0,1-40.709,6.213A416.582,416.582,0,0,1,410,820Zm0-610c-110.281,0-200,89.72-200,200s89.72,200,200,200,200-89.72,200-200S520.281,210,410,210Z" transform="translate(2832.93 1065.071) rotate(-90)" fill="rgba(255,255,255,0)"/>
    <circle id="Ellipse_40" data-name="Ellipse 40" cx="105" cy="105" r="105" transform="translate(3442.859 551)" fill="#002936" opacity="0.57"/>
  </g>
</svg>
