<svg xmlns="http://www.w3.org/2000/svg" width="821.496" height="821.5" viewBox="0 0 821.496 821.5">
  <g id="Group_1849" data-name="Group 1849" transform="translate(-2184 -119.5)">
    <g id="Group_1848" data-name="Group 1848" transform="translate(9 76)">
      <path id="Exclusion_3" data-name="Exclusion 3" d="M410,820a416.584,416.584,0,0,1-41.92-2.117,411.032,411.032,0,0,1-40.709-6.213c-13.208-2.7-26.428-6.1-39.292-10.1-12.72-3.956-25.393-8.595-37.669-13.787A411.2,411.2,0,0,1,32.22,569.591c-5.192-12.276-9.831-24.95-13.787-37.669-4-12.864-7.4-26.084-10.1-39.292A411.042,411.042,0,0,1,2.117,451.92a416.142,416.142,0,0,1,0-83.84A411.034,411.034,0,0,1,8.33,327.371c2.7-13.208,6.1-26.428,10.1-39.292,3.956-12.719,8.595-25.393,13.787-37.669A411.2,411.2,0,0,1,250.41,32.22c12.276-5.192,24.95-9.831,37.669-13.787,12.864-4,26.084-7.4,39.292-10.1A411.034,411.034,0,0,1,368.08,2.117a416.142,416.142,0,0,1,83.84,0A411.042,411.042,0,0,1,492.63,8.33c13.208,2.7,26.428,6.1,39.292,10.1,12.719,3.956,25.393,8.595,37.669,13.787A411.2,411.2,0,0,1,787.78,250.41c5.192,12.276,9.831,24.949,13.787,37.669,4,12.864,7.4,26.084,10.1,39.292a411.032,411.032,0,0,1,6.213,40.709,416.138,416.138,0,0,1,0,83.84,411.039,411.039,0,0,1-6.213,40.709c-2.7,13.208-6.1,26.428-10.1,39.292-3.956,12.72-8.595,25.393-13.787,37.669A411.2,411.2,0,0,1,569.591,787.78c-12.276,5.192-24.949,9.831-37.669,13.787-12.864,4-26.084,7.4-39.292,10.1a411.039,411.039,0,0,1-40.709,6.213A416.582,416.582,0,0,1,410,820Zm0-610c-110.281,0-200,89.72-200,200s89.72,200,200,200,200-89.72,200-200S520.281,210,410,210Z" transform="translate(2175 45)"/>
    </g>
    <path id="Union_1" data-name="Union 1" d="M-15773.916-720.323a106.5,106.5,0,0,1-18.057-9.767,107.361,107.361,0,0,1-15.74-12.94,107.387,107.387,0,0,1-13-15.68,106.715,106.715,0,0,1-9.845-18.007,105.9,105.9,0,0,1-8.51-41.281v-.506c0-109.451-89.043-198.5-198.5-198.5a197.4,197.4,0,0,0-109.206,32.809l-1.221.8-.837-1.2L-16270-1158.123l1.657-1.127c.233-.155.466-.314.694-.47a411.427,411.427,0,0,1,69.9-37.941c12.318-5.21,25.042-9.869,37.811-13.838,12.932-4.026,26.2-7.436,39.436-10.143a411.662,411.662,0,0,1,40.856-6.235,418.119,418.119,0,0,1,42.074-2.123,418.037,418.037,0,0,1,42.069,2.123,411.715,411.715,0,0,1,40.861,6.235c13.226,2.7,26.5,6.117,39.436,10.143,12.772,3.973,25.491,8.628,37.807,13.838a411.24,411.24,0,0,1,69.9,37.941,414.658,414.658,0,0,1,60.905,50.244,414.507,414.507,0,0,1,50.244,60.9,411.907,411.907,0,0,1,37.941,69.9c5.215,12.335,9.869,25.055,13.839,37.811,4.021,12.932,7.436,26.2,10.139,39.436a412.151,412.151,0,0,1,6.234,40.857,417.7,417.7,0,0,1,2.124,42.07,105.85,105.85,0,0,1-8.371,41.457,106.455,106.455,0,0,1-9.816,18.093,107.517,107.517,0,0,1-13,15.761,107.3,107.3,0,0,1-15.761,13.005,106.517,106.517,0,0,1-18.093,9.82,105.827,105.827,0,0,1-41.453,8.371A105.783,105.783,0,0,1-15773.916-720.323Z" transform="translate(18631.57 1349.5)" fill="#fff"/>
  </g>
</svg>
