<svg xmlns="http://www.w3.org/2000/svg" width="826.001" height="823" viewBox="0 0 826.001 823">
  <g id="Group_1843" data-name="Group 1843" transform="translate(-7292 1198)">
    <path id="Exclusion_3" data-name="Exclusion 3" d="M410,820a416.584,416.584,0,0,1-41.92-2.117,411.032,411.032,0,0,1-40.709-6.213c-13.208-2.7-26.428-6.1-39.292-10.1-12.72-3.956-25.393-8.595-37.669-13.787A411.2,411.2,0,0,1,32.22,569.591c-5.192-12.276-9.831-24.95-13.787-37.669-4-12.864-7.4-26.084-10.1-39.292A411.042,411.042,0,0,1,2.117,451.92a416.142,416.142,0,0,1,0-83.84A411.034,411.034,0,0,1,8.33,327.371c2.7-13.208,6.1-26.428,10.1-39.292,3.956-12.719,8.595-25.393,13.787-37.669A411.2,411.2,0,0,1,250.41,32.22c12.276-5.192,24.95-9.831,37.669-13.787,12.864-4,26.084-7.4,39.292-10.1A411.034,411.034,0,0,1,368.08,2.117a416.142,416.142,0,0,1,83.84,0A411.042,411.042,0,0,1,492.63,8.33c13.208,2.7,26.428,6.1,39.292,10.1,12.719,3.956,25.393,8.595,37.669,13.787A411.2,411.2,0,0,1,787.78,250.41c5.192,12.276,9.831,24.949,13.787,37.669,4,12.864,7.4,26.084,10.1,39.292a411.032,411.032,0,0,1,6.213,40.709,416.138,416.138,0,0,1,0,83.84,411.039,411.039,0,0,1-6.213,40.709c-2.7,13.208-6.1,26.428-10.1,39.292-3.956,12.72-8.595,25.393-13.787,37.669A411.2,411.2,0,0,1,569.591,787.78c-12.276,5.192-24.949,9.831-37.669,13.787-12.864,4-26.084,7.4-39.292,10.1a411.039,411.039,0,0,1-40.709,6.213A416.582,416.582,0,0,1,410,820Zm0-610c-110.281,0-200,89.72-200,200s89.72,200,200,200,200-89.72,200-200S520.281,210,410,210Z" transform="translate(7296 -1195)" fill="#fff"/>
    <path id="Path_1572" data-name="Path 1572" d="M678,455.5c0-.168,0-.329,0-.5,0-110.28-89.721-200-200-200S278,344.719,278,455H68a416.827,416.827,0,0,1,2.117-41.92,411.776,411.776,0,0,1,6.213-40.709c2.7-13.209,6.1-26.429,10.1-39.292,3.957-12.719,8.6-25.393,13.789-37.67A411.2,411.2,0,0,1,318.409,77.22c12.277-5.193,24.951-9.832,37.67-13.788,12.863-4,26.083-7.4,39.292-10.1a411.034,411.034,0,0,1,40.709-6.211,416.129,416.129,0,0,1,83.839,0,410.924,410.924,0,0,1,40.709,6.211c13.209,2.7,26.429,6.1,39.294,10.1,12.717,3.957,25.391,8.6,37.668,13.788a411.194,411.194,0,0,1,218.19,218.188c5.191,12.277,9.83,24.951,13.787,37.67,4,12.863,7.4,26.083,10.1,39.292a411.056,411.056,0,0,1,6.213,40.709A416.971,416.971,0,0,1,888,455a105,105,0,0,1-210,.5Z" transform="translate(7227.001 -1240.001)"/>
    <path id="Path_1572_-_Outline" data-name="Path 1572 - Outline" d="M783,560A105,105,0,0,0,888,455a416.953,416.953,0,0,0-2.117-41.92,411.017,411.017,0,0,0-6.213-40.709c-2.7-13.209-6.1-26.429-10.1-39.292-3.957-12.719-8.6-25.393-13.787-37.67A411.206,411.206,0,0,0,637.591,77.221c-12.277-5.193-24.951-9.832-37.668-13.788-12.865-4-26.085-7.4-39.294-10.1a410.932,410.932,0,0,0-40.709-6.211,416.115,416.115,0,0,0-83.839,0,411.043,411.043,0,0,0-40.709,6.211c-13.208,2.7-26.429,6.1-39.292,10.1-12.719,3.957-25.393,8.6-37.67,13.788A411.168,411.168,0,0,0,100.221,295.409c-5.193,12.277-9.832,24.951-13.789,37.67-4,12.863-7.4,26.083-10.1,39.292a411.787,411.787,0,0,0-6.213,40.709A416.836,416.836,0,0,0,68,455H278c0-110.28,89.72-200,200-200s200,89.721,200,200c0,.168,0,.33,0,.5A105,105,0,0,0,783,560m0,3a108.782,108.782,0,0,1-21.7-2.182,107.421,107.421,0,0,1-38.536-16.165,108.32,108.32,0,0,1-39.133-47.282,107.472,107.472,0,0,1-6.349-20.187A108.724,108.724,0,0,1,675,455.511v-.024c0-.165,0-.323,0-.488,0-108.627-88.374-197-197-197S281,346.373,281,455v3H65v-3a419.856,419.856,0,0,1,2.132-42.223A414.787,414.787,0,0,1,73.39,371.77c2.721-13.3,6.145-26.614,10.177-39.581,3.985-12.812,8.659-25.58,13.89-37.948A414.2,414.2,0,0,1,317.241,74.457c12.365-5.23,25.132-9.9,37.947-13.89,12.968-4.033,26.285-7.457,39.582-10.178a414.047,414.047,0,0,1,41.007-6.257,419.12,419.12,0,0,1,84.446,0A413.953,413.953,0,0,1,561.23,50.39c13.294,2.72,26.612,6.144,39.583,10.178,12.816,3.987,25.583,8.661,37.946,13.89A414.194,414.194,0,0,1,858.544,294.24c5.231,12.37,9.9,25.137,13.888,37.948,4.033,12.967,7.457,26.284,10.178,39.582a414.076,414.076,0,0,1,6.259,41.007A419.986,419.986,0,0,1,891,455a108.783,108.783,0,0,1-2.194,21.763,107.425,107.425,0,0,1-16.252,38.624,108.307,108.307,0,0,1-47.514,39.126,107.481,107.481,0,0,1-20.277,6.294A108.785,108.785,0,0,1,783,563Z" transform="translate(7227.001 -1240.001)"/>
  </g>
</svg>
